<?xml version="1.0" encoding="UTF-8"?>
<svg xmlns="http://www.w3.org/2000/svg" xmlns:xlink="http://www.w3.org/1999/xlink" width="16px" height="16px" viewBox="0 0 16 16" version="1.1">
<g id="surface1">
<path style=" stroke:none;fill-rule:nonzero;fill:rgb(0%,0%,0%);fill-opacity:1;" d="M 15.910156 8.21875 L 13.085938 4.289062 C 13.003906 4.164062 12.882812 4.082031 12.746094 4.0625 C 12.609375 4.046875 12.472656 4.09375 12.367188 4.191406 C 12.367188 4.191406 10.46875 6.226562 9.898438 6.710938 C 9.417969 7.121094 9.101562 6.746094 9.054688 6.464844 C 9.015625 6.234375 9.089844 5.871094 9.167969 5.769531 C 9.167969 5.769531 9.277344 5.546875 9.496094 4.859375 C 9.746094 4.078125 9.164062 3.378906 9.035156 3.808594 C 8.90625 4.238281 8.476562 5.046875 8.476562 5.046875 L 7.523438 5.046875 C 7.523438 5.046875 7.09375 4.238281 6.964844 3.808594 C 6.835938 3.378906 6.253906 4.078125 6.503906 4.859375 C 6.722656 5.546875 6.832031 5.769531 6.832031 5.769531 C 6.910156 5.871094 6.984375 6.234375 6.945312 6.464844 C 6.898438 6.746094 6.582031 7.121094 6.101562 6.710938 C 5.53125 6.226562 3.632812 4.191406 3.632812 4.191406 C 3.527344 4.09375 3.390625 4.046875 3.253906 4.0625 C 3.117188 4.082031 2.996094 4.164062 2.914062 4.289062 L 0.0898438 8.21875 C -0.03125 8.40625 -0.03125 8.664062 0.09375 8.851562 C 0.21875 9.039062 0.4375 9.117188 0.640625 9.042969 L 2.09375 8.488281 C 2.199219 8.449219 2.3125 8.460938 2.410156 8.523438 C 2.507812 8.582031 2.574219 8.6875 2.59375 8.808594 L 2.777344 9.886719 C 2.800781 10.023438 2.882812 10.136719 2.996094 10.195312 C 3.109375 10.25 3.242188 10.242188 3.351562 10.171875 L 4.953125 9.109375 C 5.128906 9.070312 5.3125 9.136719 5.425781 9.289062 L 7.628906 12.132812 C 7.722656 12.253906 7.855469 12.320312 8 12.320312 C 8.144531 12.320312 8.277344 12.253906 8.371094 12.132812 L 10.574219 9.289062 C 10.691406 9.136719 10.871094 9.070312 11.046875 9.109375 L 12.648438 10.171875 C 12.757812 10.242188 12.890625 10.25 13.003906 10.195312 C 13.117188 10.136719 13.199219 10.023438 13.222656 9.886719 L 13.40625 8.808594 C 13.425781 8.6875 13.492188 8.582031 13.589844 8.523438 C 13.6875 8.460938 13.800781 8.449219 13.90625 8.488281 L 15.359375 9.042969 C 15.5625 9.117188 15.78125 9.039062 15.90625 8.851562 C 16.03125 8.664062 16.03125 8.40625 15.910156 8.21875 Z M 15.910156 8.21875 "/>
</g>
</svg>
